<?xml version="1.0" standalone="no"?>
<!DOCTYPE svg PUBLIC "-//W3C//DTD SVG 20010904//EN"
 "http://www.w3.org/TR/2001/REC-SVG-20010904/DTD/svg10.dtd">
<svg version="1.0" xmlns="http://www.w3.org/2000/svg"
 width="2718.000000pt" height="838.000000pt" viewBox="0 0 2718.000000 838.000000"
 preserveAspectRatio="xMidYMid meet">

<g transform="translate(0.000000,838.000000) scale(0.100000,-0.100000)"
fill="#FF5101" stroke="none">
<path d="M9650 8370 c-218 -23 -390 -77 -620 -197 -2029 -1058 -4650 -2882
-7450 -5187 -568 -468 -1576 -1326 -1557 -1326 3 0 49 16 103 36 429 155 1425
496 2176 743 4474 1474 9586 2784 14338 3675 823 154 1995 358 2347 407 51 7
90 16 87 21 -9 14 -502 380 -714 530 -688 485 -1280 884 -1407 948 -291 146
-639 200 -973 150 -93 -14 -920 -219 -1375 -340 -2761 -737 -5938 -1858 -9045
-3190 -411 -176 -1043 -456 -1345 -595 -293 -136 -315 -145 -315 -140 0 2 106
68 235 145 1506 901 3520 1837 5860 2725 575 218 1459 534 1815 650 47 15 88
30 92 34 17 15 -636 382 -987 555 -605 298 -931 390 -1265 356z"/>
<path d="M21070 6354 c-839 -25 -1773 -118 -2950 -295 -3051 -457 -7518 -1475
-12745 -2906 -1276 -349 -3217 -900 -3179 -902 7 -1 167 19 355 43 1883 244
3959 460 5814 606 5772 454 10858 366 14816 -255 1523 -239 3011 -598 3842
-929 88 -34 134 -48 125 -38 -117 139 -692 778 -1057 1176 -1414 1540 -2618
2692 -3261 3118 -370 246 -839 366 -1490 381 -91 2 -212 2 -270 1z"/>
<path d="M1802 2000 c-211 -30 -394 -117 -496 -236 -88 -103 -126 -214 -126
-366 0 -306 176 -451 695 -573 285 -67 380 -110 415 -188 24 -51 25 -77 5
-125 -48 -113 -176 -160 -414 -149 -187 8 -386 67 -531 156 -28 17 -54 31 -59
31 -4 0 -41 -73 -81 -161 l-73 -162 24 -18 c79 -61 284 -141 441 -173 206 -42
467 -41 643 4 109 27 247 97 319 162 141 125 208 312 177 494 -31 181 -149
306 -374 395 -28 11 -167 50 -307 85 -321 82 -387 110 -426 186 -20 39 -17
112 6 159 85 166 476 180 799 28 47 -22 88 -36 91 -32 9 10 130 310 130 321 0
11 -157 85 -227 107 -123 39 -238 56 -403 60 -91 2 -193 0 -228 -5z"/>
<path d="M13275 2003 c-309 -38 -560 -175 -725 -394 -259 -344 -262 -849 -7
-1195 172 -234 428 -371 754 -404 275 -28 610 50 833 195 l70 45 0 390 0 390
-205 0 -205 0 0 -284 0 -284 -49 -21 c-79 -33 -159 -51 -261 -58 -270 -16
-504 110 -608 328 -53 111 -66 173 -66 299 1 190 52 320 173 440 129 128 262
180 460 180 180 0 298 -41 437 -151 l75 -60 106 98 c58 54 122 112 142 130
l36 32 -60 57 c-189 180 -457 276 -760 272 -60 0 -123 -3 -140 -5z"/>
<path d="M15385 1999 c-249 -36 -490 -163 -647 -339 -97 -110 -176 -262 -215
-416 -13 -52 -17 -111 -17 -239 0 -146 3 -182 23 -255 46 -171 134 -324 256
-445 350 -349 975 -403 1401 -120 203 135 339 327 406 573 32 115 32 371 0
496 -101 399 -433 685 -867 745 -88 13 -253 12 -340 0z m333 -384 c214 -51
391 -233 437 -451 64 -300 -63 -593 -308 -714 -306 -151 -672 -45 -820 237
-102 194 -103 450 -5 636 70 132 230 256 374 291 78 19 243 19 322 1z"/>
<path d="M3060 1010 l0 -970 225 0 225 0 0 970 0 970 -225 0 -225 0 0 -970z"/>
<path d="M3980 1010 l0 -970 750 0 750 0 0 175 0 175 -530 0 -530 0 0 230 0
230 450 0 450 0 0 170 0 170 -450 0 -450 0 0 215 0 215 510 0 510 0 0 180 0
180 -730 0 -730 0 0 -970z"/>
<path d="M5840 1011 l0 -971 225 0 225 0 0 270 0 270 208 0 207 0 185 -270
185 -270 238 0 c188 0 237 3 231 13 -4 6 -99 143 -211 304 -112 160 -203 294
-203 296 0 3 30 22 68 43 99 55 210 170 256 266 53 111 69 197 63 348 -3 88
-11 144 -26 190 -61 191 -216 344 -421 416 -156 54 -177 56 -722 61 l-508 5 0
-971z m917 598 c206 -28 313 -142 313 -334 0 -108 -23 -169 -90 -237 -46 -46
-69 -60 -126 -79 -62 -20 -94 -23 -316 -27 l-248 -4 0 346 0 346 194 0 c107 0
230 -5 273 -11z"/>
<path d="M7890 1010 l0 -970 220 0 220 0 0 270 0 270 209 0 209 0 184 -267
184 -268 237 -3 c130 -1 237 0 237 4 0 3 -95 142 -210 308 -173 247 -208 303
-195 311 8 6 42 26 76 45 250 142 364 459 278 773 -47 169 -165 308 -329 390
-191 94 -297 107 -886 107 l-434 0 0 -970z m1001 582 c95 -31 151 -78 191
-159 29 -60 32 -75 33 -157 0 -83 -3 -97 -33 -158 -50 -102 -130 -156 -262
-177 -36 -6 -161 -11 -277 -11 l-213 0 0 346 0 346 248 -4 c217 -4 255 -8 313
-26z"/>
<path d="M10531 1953 c-17 -37 -842 -1884 -848 -1901 -4 -10 42 -12 223 -10
l228 3 84 203 85 202 456 -2 455 -3 84 -202 84 -203 233 0 232 0 -432 967
-432 968 -220 3 -220 2 -12 -27z m384 -783 c81 -195 149 -361 152 -367 4 -10
-61 -13 -306 -13 -171 0 -311 3 -311 8 0 19 306 740 311 734 4 -4 73 -167 154
-362z"/>
<path d="M16970 1010 l0 -970 220 0 220 0 0 270 0 270 211 -2 211 -3 183 -265
183 -265 242 -3 242 -2 -35 47 c-19 27 -107 154 -197 283 -90 129 -171 247
-182 262 l-18 27 72 38 c90 47 201 155 245 238 57 110 77 195 77 335 1 147
-11 204 -66 319 -58 121 -159 221 -288 285 -190 93 -298 106 -886 106 l-434 0
0 -970z m912 600 c145 -21 236 -78 285 -178 24 -51 28 -68 28 -157 0 -89 -4
-106 -28 -157 -47 -96 -138 -157 -267 -177 -36 -6 -161 -11 -277 -11 l-213 0
0 345 0 345 203 0 c111 0 232 -5 269 -10z"/>
<path d="M19010 1009 l0 -970 553 4 c467 3 562 6 619 20 426 104 690 364 764
753 22 120 15 345 -15 459 -40 151 -108 271 -220 389 -167 174 -401 279 -679
306 -59 5 -313 10 -564 10 l-458 0 0 -971z m1043 585 c119 -26 212 -77 292
-158 82 -83 118 -145 145 -252 24 -94 26 -251 5 -343 -37 -154 -149 -298 -286
-365 -132 -64 -163 -69 -471 -74 l-278 -4 0 606 0 606 261 0 c201 0 276 -4
332 -16z"/>
<path d="M21475 1043 c-230 -516 -424 -953 -432 -971 l-13 -32 227 2 228 3 84
203 84 202 456 0 456 0 84 -205 84 -205 232 0 233 0 -193 432 c-106 238 -301
674 -432 968 l-240 535 -220 3 -220 2 -418 -937z m790 127 c81 -195 150 -361
152 -367 4 -10 -61 -13 -307 -13 -256 0 -311 2 -308 13 10 43 304 734 310 729
3 -4 72 -167 153 -362z"/>
<path d="M23480 1419 c-76 -13 -169 -59 -213 -103 -82 -85 -89 -227 -16 -311
49 -56 90 -74 256 -116 129 -32 162 -44 181 -65 28 -32 28 -46 -2 -81 -23 -26
-30 -28 -114 -31 -100 -4 -187 13 -264 53 l-48 24 -40 -86 c-22 -47 -40 -87
-40 -88 0 -10 133 -58 196 -71 109 -23 297 -15 375 15 227 87 255 361 47 451
-29 12 -106 36 -173 52 -66 16 -133 34 -148 40 -87 34 -44 129 64 143 67 8
167 -8 236 -40 l51 -23 37 85 c20 47 35 86 33 88 -58 50 -293 86 -418 64z"/>
<path d="M24445 1424 c-217 -34 -370 -176 -405 -376 -39 -225 98 -434 329
-502 80 -23 241 -21 323 4 67 21 138 62 177 104 l24 25 -74 69 -74 70 -34 -31
c-114 -99 -303 -90 -386 18 -65 86 -74 224 -19 312 83 133 271 161 392 58 l42
-36 27 19 c16 11 50 43 76 70 l48 49 -38 34 c-53 48 -99 75 -163 93 -56 17
-193 28 -245 20z"/>
<path d="M25030 975 l0 -435 110 0 110 0 2 229 3 230 111 -177 111 -177 59 0
59 0 110 182 c60 101 113 183 118 183 4 0 7 -106 7 -235 l0 -235 110 0 110 0
0 353 c0 193 -3 389 -7 435 l-6 82 -96 0 -96 -1 -149 -249 c-82 -138 -152
-250 -156 -250 -4 0 -76 113 -161 250 l-154 250 -97 0 -98 0 0 -435z"/>
</g>
</svg>
